<svg xmlns="http://www.w3.org/2000/svg" xmlns:bx="https://boxy-svg.com" xmlns:xlink="http://www.w3.org/1999/xlink" width="600" height="600" x="0" y="0" viewBox="0 0 600 600"><g id="Layer_6" bx:origin="0.505 0.5"><g><g transform="matrix(1.148644, 0, 0, 1.148644, -44.853748, -52.512775)"><circle cx="296" cy="304.419" r="231.5" fill="#00AEEF"/><circle cx="296" cy="304.419" r="231.5" fill="none" stroke="#00AEEF" stroke-linecap="round" stroke-linejoin="round" stroke-miterlimit="10" stroke-width="8"/></g></g></g><g id="Layer_2" bx:origin="0.517 0.509"><g><path fill="#FFF" stroke="#FFF" stroke-linecap="round" stroke-linejoin="round" stroke-miterlimit="10" stroke-width="5" d="M284.075,146.991l-0.213,66.145l-73.988,23.667l73.799,35.001l-0.212,65.907l-73.925,34.792l73.736,23.988l-0.212,65.801 l-131.865-49.941l0.22-68.289l83.251-39.363l-82.997-39.54l0.22-68.29L284.075,146.991z" transform="matrix(1.148644, 0, 0, 1.148644, -44.853748, -52.512775)"/></g><g><path fill="#FFF" stroke="#FFF" stroke-linecap="round" stroke-linejoin="round" stroke-miterlimit="10" stroke-width="5" d="M309.816,462.408l-0.297-66.145l73.804-24.019l-74.067-34.649l-0.296-65.906l73.655-35.145l-73.919-23.635l-0.296-65.801 l132.248,49.312l0.307,68.29l-82.945,39.759l83.3,39.143l0.307,68.29L309.816,462.408z" transform="matrix(1.148644, 0, 0, 1.148644, -44.853748, -52.512775)"/></g></g></svg>